  0
SECTION
  2
HEADER
  9
$ACADVER
  1
AC1006
  9
$EXTMIN
 10
0.000000
 20
0.000000
 30
0.000000
  9
$EXTMAX
 10
2480.000000
 20
3508.000000
 30
0.000000
  0
ENDSEC
  0
SECTION
  2
ENTITIES
  0
POLYLINE
  8
0
 66
1
 70
1
  0
VERTEX
  8
0
 10
0.000000
 20
1754.000000
 42
0.000000
  0
VERTEX
  8
0
 10
0.000000
 20
0.000000
 42
0.000000
  0
VERTEX
  8
0
 10
1240.000000
 20
0.000000
 42
0.000000
  0
VERTEX
  8
0
 10
2480.000000
 20
0.000000
 42
0.000000
  0
VERTEX
  8
0
 10
2480.000000
 20
880.500000
 42
0.000000
  0
VERTEX
  8
0
 10
2480.000000
 20
1761.000000
 42
0.000000
  0
VERTEX
  8
0
 10
1863.500000
 20
1761.000000
 42
0.000000
  0
VERTEX
  8
0
 10
1247.000000
 20
1761.000000
 42
0.000000
  0
VERTEX
  8
0
 10
1247.000000
 20
2634.500000
 42
0.000000
  0
VERTEX
  8
0
 10
1247.000000
 20
3508.000000
 42
0.000000
  0
VERTEX
  8
0
 10
623.500000
 20
3508.000000
 42
0.000000
  0
VERTEX
  8
0
 10
0.000000
 20
3508.000000
 42
0.000000
  0
SEQEND
  0
POLYLINE
  8
0
 66
1
 70
1
  0
VERTEX
  8
0
 10
1421.229735
 20
3425.250000
 42
0.000000
  0
VERTEX
  8
0
 10
1421.535747
 20
3342.500000
 42
0.000000
  0
VERTEX
  8
0
 10
1424.177013
 20
3332.881115
 42
0.051146
  0
VERTEX
  8
0
 10
1432.806380
 20
3310.645093
 42
0.054870
  0
VERTEX
  8
0
 10
1445.611513
 20
3291.186191
 42
0.054955
  0
VERTEX
  8
0
 10
1462.322555
 20
3275.003226
 42
0.051592
  0
VERTEX
  8
0
 10
1482.500000
 20
3262.452450
 42
0.020432
  0
VERTEX
  8
0
 10
1491.832951
 20
3258.368252
 42
0.025479
  0
VERTEX
  8
0
 10
1500.812809
 20
3255.385472
 42
0.025296
  0
VERTEX
  8
0
 10
1510.103342
 20
3253.316031
 42
0.019658
  0
VERTEX
  8
0
 10
1520.373319
 20
3251.980898
 42
0.022474
  0
VERTEX
  8
0
 10
1541.166981
 20
3251.043981
 42
0.000027
  0
VERTEX
  8
0
 10
1964.888454
 20
3251.030423
 42
0.000028
  0
VERTEX
  8
0
 10
2388.424199
 20
3251.063360
 42
0.022045
  0
VERTEX
  8
0
 10
2409.611322
 20
3252.000783
 42
0.040569
  0
VERTEX
  8
0
 10
2427.506474
 20
3255.061403
 42
0.041428
  0
VERTEX
  8
0
 10
2444.542290
 20
3260.959336
 42
0.042049
  0
VERTEX
  8
0
 10
2460.137159
 20
3269.481892
 42
0.044667
  0
VERTEX
  8
0
 10
2473.750000
 20
3280.343910
 42
0.000000
  0
VERTEX
  8
0
 10
2480.000000
 20
3286.317015
 42
0.000000
  0
VERTEX
  8
0
 10
2480.000000
 20
3397.158507
 42
0.000000
  0
VERTEX
  8
0
 10
2480.000000
 20
3508.000000
 42
0.000000
  0
VERTEX
  8
0
 10
1950.461862
 20
3508.000000
 42
0.000000
  0
VERTEX
  8
0
 10
1420.923724
 20
3508.000000
 42
0.000000
  0
SEQEND
  0
POLYLINE
  8
0
 66
1
 70
1
  0
VERTEX
  8
0
 10
1465.334137
 20
3028.523139
 42
0.040238
  0
VERTEX
  8
0
 10
1449.134471
 20
3024.205926
 42
0.037884
  0
VERTEX
  8
0
 10
1433.490550
 20
3017.283298
 42
0.037988
  0
VERTEX
  8
0
 10
1419.112484
 20
3008.102244
 42
0.041019
  0
VERTEX
  8
0
 10
1406.681280
 20
2997.061826
 42
0.034402
  0
VERTEX
  8
0
 10
1395.847680
 20
2984.037023
 42
0.039485
  0
VERTEX
  8
0
 10
1387.445944
 20
2970.212952
 42
0.039862
  0
VERTEX
  8
0
 10
1381.383488
 20
2955.358755
 42
0.036319
  0
VERTEX
  8
0
 10
1377.526134
 20
2939.262547
 42
0.039301
  0
VERTEX
  8
0
 10
1376.507355
 20
2927.168570
 42
0.000652
  0
VERTEX
  8
0
 10
1376.225611
 20
2859.673567
 42
0.000798
  0
VERTEX
  8
0
 10
1376.083592
 20
2748.156584
 42
0.000080
  0
VERTEX
  8
0
 10
1376.212293
 20
2481.500000
 42
0.000000
  0
VERTEX
  8
0
 10
1376.500000
 20
2033.500000
 42
0.000000
  0
VERTEX
  8
0
 10
1379.199337
 20
2023.722651
 42
0.050501
  0
VERTEX
  8
0
 10
1387.894557
 20
2001.323445
 42
0.054324
  0
VERTEX
  8
0
 10
1400.737946
 20
1981.709289
 42
0.054792
  0
VERTEX
  8
0
 10
1417.393334
 20
1965.460654
 42
0.053008
  0
VERTEX
  8
0
 10
1437.357984
 20
1953.009213
 42
0.017332
  0
VERTEX
  8
0
 10
1445.913919
 20
1949.218413
 42
0.023901
  0
VERTEX
  8
0
 10
1453.850707
 20
1946.458881
 42
0.023962
  0
VERTEX
  8
0
 10
1461.998774
 20
1944.474351
 42
0.017556
  0
VERTEX
  8
0
 10
1471.193212
 20
1943.029365
 42
0.029618
  0
VERTEX
  8
0
 10
1480.932915
 20
1942.429069
 42
0.000149
  0
VERTEX
  8
0
 10
1578.618718
 20
1942.229916
 42
0.000496
  0
VERTEX
  8
0
 10
1711.709274
 20
1942.130309
 42
0.000129
  0
VERTEX
  8
0
 10
1926.000000
 20
1942.237693
 42
0.000075
  0
VERTEX
  8
0
 10
2196.431334
 20
1942.483563
 42
0.000843
  0
VERTEX
  8
0
 10
2304.122656
 20
1942.779221
 42
0.000536
  0
VERTEX
  8
0
 10
2369.485857
 20
1943.138922
 42
0.061119
  0
VERTEX
  8
0
 10
2378.000000
 20
1944.240451
 42
0.028115
  0
VERTEX
  8
0
 10
2394.132193
 20
1949.354085
 42
0.036188
  0
VERTEX
  8
0
 10
2408.230642
 20
1955.914435
 42
0.037332
  0
VERTEX
  8
0
 10
2420.883290
 20
1964.249305
 42
0.033299
  0
VERTEX
  8
0
 10
2432.680114
 20
1974.673432
 42
0.033880
  0
VERTEX
  8
0
 10
2441.910971
 20
1985.352521
 42
0.033538
  0
VERTEX
  8
0
 10
2449.649332
 20
1997.215403
 42
0.032471
  0
VERTEX
  8
0
 10
2455.941573
 20
2010.374362
 42
0.027832
  0
VERTEX
  8
0
 10
2460.852304
 20
2024.926228
 42
0.000000
  0
VERTEX
  8
0
 10
2463.500000
 20
2034.500000
 42
0.000000
  0
VERTEX
  8
0
 10
2463.500000
 20
2484.500000
 42
0.000094
  0
VERTEX
  8
0
 10
2463.453076
 20
2733.721652
 42
0.000674
  0
VERTEX
  8
0
 10
2463.245331
 20
2854.167136
 42
0.000288
  0
VERTEX
  8
0
 10
2462.957701
 20
2933.002918
 42
0.048481
  0
VERTEX
  8
0
 10
2462.095613
 20
2941.500000
 42
0.067573
  0
VERTEX
  8
0
 10
2451.999826
 20
2970.694358
 42
0.071201
  0
VERTEX
  8
0
 10
2434.613216
 20
2995.568429
 42
0.070985
  0
VERTEX
  8
0
 10
2410.895029
 20
3014.625412
 42
0.066536
  0
VERTEX
  8
0
 10
2382.277349
 20
3026.800663
 42
0.000000
  0
VERTEX
  8
0
 10
2372.500000
 20
3029.500000
 42
0.000000
  0
VERTEX
  8
0
 10
1922.500000
 20
3029.663609
 42
0.000104
  0
VERTEX
  8
0
 10
1684.017228
 20
3029.700714
 42
0.000611
  0
VERTEX
  8
0
 10
1558.788607
 20
3029.541231
 42
0.000217
  0
VERTEX
  8
0
 10
1473.696070
 20
3029.291993
 42
0.044192
  0
SEQEND
  0
POLYLINE
  8
0
 66
1
 70
1
  0
VERTEX
  8
0
 10
2149.000000
 20
2486.000000
 42
0.000000
  0
VERTEX
  8
0
 10
2149.000000
 20
2239.000000
 42
0.000000
  0
VERTEX
  8
0
 10
1919.500000
 20
2239.000000
 42
0.000000
  0
VERTEX
  8
0
 10
1690.000000
 20
2239.000000
 42
0.000000
  0
VERTEX
  8
0
 10
1690.000000
 20
2486.000000
 42
0.000000
  0
VERTEX
  8
0
 10
1690.000000
 20
2733.000000
 42
0.000000
  0
VERTEX
  8
0
 10
1919.500000
 20
2733.000000
 42
0.000000
  0
VERTEX
  8
0
 10
2149.000000
 20
2733.000000
 42
0.000000
  0
SEQEND
  0
ENDSEC
  0
EOF
