  0
SECTION
  2
HEADER
  9
$ACADVER
  1
AC1009
  9
$EXTMIN
 10
0.0
 20
0.0
 30
0.0
  9
$EXTMAX
 10
1000.0
 20
1000.0
 30
0.0
  9
$FILLMODE
 70
 0
  9
$SPLFRAME
 70
 1
  0
ENDSEC
  0
SECTION
  2
TABLES
  0
TABLE
  2
LAYER
 70
1
  0
LAYER
  2
0
 70
     0
 62
     7
  6
CONTINUOUS
  0
ENDTAB
  0
ENDSEC
  0
SECTION
  2
ENTITIES
  0
POLYLINE
  8
0
 62
     7
 66
     1
 10
0
 20
0
 30
0.0
 70
     1
 40
0
 41
0
  0
VERTEX
  8
0
 10
3.11518
 20
24.516
 30
0.0
 40
0
 41
0
  0
VERTEX
  8
0
 10
8.87304
 20
24.516
 30
0.0
 40
0
 41
0
  0
VERTEX
  8
0
 10
8.87304
 20
4.40767
 30
0.0
 40
0
 41
0
  0
VERTEX
  8
0
 10
3.11518
 20
4.40767
 30
0.0
 40
0
 41
0
  0
VERTEX
  8
0
 10
3.11518
 20
24.516
 30
0.0
 40
0
 41
0
  0
SEQEND
 8
0
  0
POLYLINE
  8
0
 62
     0
 66
     1
 10
0
 20
0
 30
0.0
 70
     1
 40
0.162
 41
0.162
  0
VERTEX
  8
0
 10
3.11518
 20
24.516
 30
0.0
 40
0.00225
 41
0.00225
  0
VERTEX
  8
0
 10
8.87304
 20
24.516
 30
0.0
 40
0.00225
 41
0.00225
  0
VERTEX
  8
0
 10
8.87304
 20
4.40767
 30
0.0
 40
0.00225
 41
0.00225
  0
VERTEX
  8
0
 10
3.11518
 20
4.40767
 30
0.0
 40
0.00225
 41
0.00225
  0
VERTEX
  8
0
 10
3.11518
 20
24.516
 30
0.0
 40
0.00225
 41
0.00225
  0
SEQEND
 8
0
  0
POLYLINE
  8
0
 62
     142
 66
     1
 10
0
 20
0
 30
0.0
 70
     1
 40
0
 41
0
  0
VERTEX
  8
0
 10
3.71007
 20
7.58138
 30
0.0
 40
0
 41
0
  0
VERTEX
  8
0
 10
5.89051
 20
7.58138
 30
0.0
 40
0
 41
0
  0
VERTEX
  8
0
 10
5.9165
 20
7.58138
 30
0.0
 40
0
 41
0
  0
VERTEX
  8
0
 10
5.99457
 20
7.56028
 30
0.0
 40
0
 41
0
  0
VERTEX
  8
0
 10
6.07981
 20
7.50265
 30
0.0
 40
0
 41
0
  0
VERTEX
  8
0
 10
6.13743
 20
7.41743
 30
0.0
 40
0
 41
0
  0
VERTEX
  8
0
 10
6.15858
 20
7.33936
 30
0.0
 40
0
 41
0
  0
VERTEX
  8
0
 10
6.15858
 20
7.31332
 30
0.0
 40
0
 41
0
  0
VERTEX
  8
0
 10
6.15858
 20
5.13292
 30
0.0
 40
0
 41
0
  0
VERTEX
  8
0
 10
6.15858
 20
5.10693
 30
0.0
 40
0
 41
0
  0
VERTEX
  8
0
 10
6.13743
 20
5.02886
 30
0.0
 40
0
 41
0
  0
VERTEX
  8
0
 10
6.07981
 20
4.94363
 30
0.0
 40
0
 41
0
  0
VERTEX
  8
0
 10
5.99457
 20
4.88601
 30
0.0
 40
0
 41
0
  0
VERTEX
  8
0
 10
5.9165
 20
4.86486
 30
0.0
 40
0
 41
0
  0
VERTEX
  8
0
 10
5.89051
 20
4.86486
 30
0.0
 40
0
 41
0
  0
VERTEX
  8
0
 10
3.71007
 20
4.86486
 30
0.0
 40
0
 41
0
  0
VERTEX
  8
0
 10
3.68403
 20
4.86486
 30
0.0
 40
0
 41
0
  0
VERTEX
  8
0
 10
3.60596
 20
4.88601
 30
0.0
 40
0
 41
0
  0
VERTEX
  8
0
 10
3.52072
 20
4.94363
 30
0.0
 40
0
 41
0
  0
VERTEX
  8
0
 10
3.46311
 20
5.02886
 30
0.0
 40
0
 41
0
  0
VERTEX
  8
0
 10
3.442
 20
5.10693
 30
0.0
 40
0
 41
0
  0
VERTEX
  8
0
 10
3.442
 20
5.13292
 30
0.0
 40
0
 41
0
  0
VERTEX
  8
0
 10
3.442
 20
7.31332
 30
0.0
 40
0
 41
0
  0
VERTEX
  8
0
 10
3.442
 20
7.33936
 30
0.0
 40
0
 41
0
  0
VERTEX
  8
0
 10
3.46311
 20
7.41743
 30
0.0
 40
0
 41
0
  0
VERTEX
  8
0
 10
3.52072
 20
7.50265
 30
0.0
 40
0
 41
0
  0
VERTEX
  8
0
 10
3.60596
 20
7.56028
 30
0.0
 40
0
 41
0
  0
VERTEX
  8
0
 10
3.68403
 20
7.58138
 30
0.0
 40
0
 41
0
  0
VERTEX
  8
0
 10
3.71007
 20
7.58138
 30
0.0
 40
0
 41
0
  0
SEQEND
 8
0
  0
POLYLINE
  8
0
 62
     142
 66
     1
 10
0
 20
0
 30
0.0
 70
     1
 40
0
 41
0
  0
VERTEX
  8
0
 10
4.2245
 20
6.84321
 30
0.0
 40
0
 41
0
  0
VERTEX
  8
0
 10
5.37608
 20
6.84321
 30
0.0
 40
0
 41
0
  0
VERTEX
  8
0
 10
5.37608
 20
5.60303
 30
0.0
 40
0
 41
0
  0
VERTEX
  8
0
 10
4.2245
 20
5.60303
 30
0.0
 40
0
 41
0
  0
VERTEX
  8
0
 10
4.2245
 20
6.84321
 30
0.0
 40
0
 41
0
  0
SEQEND
 8
0
  0
POLYLINE
  8
0
 62
     0
 66
     1
 10
0
 20
0
 30
0.0
 70
     1
 40
0.162
 41
0.162
  0
VERTEX
  8
0
 10
3.71007
 20
7.58138
 30
0.0
 40
0.00225
 41
0.00225
  0
VERTEX
  8
0
 10
5.89051
 20
7.58138
 30
0.0
 40
0.00225
 41
0.00225
  0
VERTEX
  8
0
 10
5.9165
 20
7.58138
 30
0.0
 40
0.00225
 41
0.00225
  0
VERTEX
  8
0
 10
5.99457
 20
7.56028
 30
0.0
 40
0.00225
 41
0.00225
  0
VERTEX
  8
0
 10
6.07981
 20
7.50265
 30
0.0
 40
0.00225
 41
0.00225
  0
VERTEX
  8
0
 10
6.13743
 20
7.41743
 30
0.0
 40
0.00225
 41
0.00225
  0
VERTEX
  8
0
 10
6.15858
 20
7.33936
 30
0.0
 40
0.00225
 41
0.00225
  0
VERTEX
  8
0
 10
6.15858
 20
7.31332
 30
0.0
 40
0.00225
 41
0.00225
  0
VERTEX
  8
0
 10
6.15858
 20
5.13292
 30
0.0
 40
0.00225
 41
0.00225
  0
VERTEX
  8
0
 10
6.15858
 20
5.10693
 30
0.0
 40
0.00225
 41
0.00225
  0
VERTEX
  8
0
 10
6.13743
 20
5.02886
 30
0.0
 40
0.00225
 41
0.00225
  0
VERTEX
  8
0
 10
6.07981
 20
4.94363
 30
0.0
 40
0.00225
 41
0.00225
  0
VERTEX
  8
0
 10
5.99457
 20
4.88601
 30
0.0
 40
0.00225
 41
0.00225
  0
VERTEX
  8
0
 10
5.9165
 20
4.86486
 30
0.0
 40
0.00225
 41
0.00225
  0
VERTEX
  8
0
 10
5.89051
 20
4.86486
 30
0.0
 40
0.00225
 41
0.00225
  0
VERTEX
  8
0
 10
3.71007
 20
4.86486
 30
0.0
 40
0.00225
 41
0.00225
  0
VERTEX
  8
0
 10
3.68403
 20
4.86486
 30
0.0
 40
0.00225
 41
0.00225
  0
VERTEX
  8
0
 10
3.60596
 20
4.88601
 30
0.0
 40
0.00225
 41
0.00225
  0
VERTEX
  8
0
 10
3.52072
 20
4.94363
 30
0.0
 40
0.00225
 41
0.00225
  0
VERTEX
  8
0
 10
3.46311
 20
5.02886
 30
0.0
 40
0.00225
 41
0.00225
  0
VERTEX
  8
0
 10
3.442
 20
5.10693
 30
0.0
 40
0.00225
 41
0.00225
  0
VERTEX
  8
0
 10
3.442
 20
5.13292
 30
0.0
 40
0.00225
 41
0.00225
  0
VERTEX
  8
0
 10
3.442
 20
7.31332
 30
0.0
 40
0.00225
 41
0.00225
  0
VERTEX
  8
0
 10
3.442
 20
7.33936
 30
0.0
 40
0.00225
 41
0.00225
  0
VERTEX
  8
0
 10
3.46311
 20
7.41743
 30
0.0
 40
0.00225
 41
0.00225
  0
VERTEX
  8
0
 10
3.52072
 20
7.50265
 30
0.0
 40
0.00225
 41
0.00225
  0
VERTEX
  8
0
 10
3.60596
 20
7.56028
 30
0.0
 40
0.00225
 41
0.00225
  0
VERTEX
  8
0
 10
3.68403
 20
7.58138
 30
0.0
 40
0.00225
 41
0.00225
  0
VERTEX
  8
0
 10
3.71007
 20
7.58138
 30
0.0
 40
0.00225
 41
0.00225
  0
SEQEND
 8
0
  0
POLYLINE
  8
0
 62
     0
 66
     1
 10
0
 20
0
 30
0.0
 70
     1
 40
0.162
 41
0.162
  0
VERTEX
  8
0
 10
4.2245
 20
6.84321
 30
0.0
 40
0.00225
 41
0.00225
  0
VERTEX
  8
0
 10
5.37608
 20
6.84321
 30
0.0
 40
0.00225
 41
0.00225
  0
VERTEX
  8
0
 10
5.37608
 20
5.60303
 30
0.0
 40
0.00225
 41
0.00225
  0
VERTEX
  8
0
 10
4.2245
 20
5.60303
 30
0.0
 40
0.00225
 41
0.00225
  0
VERTEX
  8
0
 10
4.2245
 20
6.84321
 30
0.0
 40
0.00225
 41
0.00225
  0
SEQEND
 8
0
  0
POLYLINE
  8
0
 62
     142
 66
     1
 10
0
 20
0
 30
0.0
 70
     1
 40
0
 41
0
  0
VERTEX
  8
0
 10
3.8226
 20
10.8547
 30
0.0
 40
0
 41
0
  0
VERTEX
  8
0
 10
6.00299
 20
10.8547
 30
0.0
 40
0
 41
0
  0
VERTEX
  8
0
 10
6.02897
 20
10.8547
 30
0.0
 40
0
 41
0
  0
VERTEX
  8
0
 10
6.10704
 20
10.8336
 30
0.0
 40
0
 41
0
  0
VERTEX
  8
0
 10
6.19228
 20
10.776
 30
0.0
 40
0
 41
0
  0
VERTEX
  8
0
 10
6.24989
 20
10.6908
 30
0.0
 40
0
 41
0
  0
VERTEX
  8
0
 10
6.27106
 20
10.6127
 30
0.0
 40
0
 41
0
  0
VERTEX
  8
0
 10
6.27106
 20
10.5867
 30
0.0
 40
0
 41
0
  0
VERTEX
  8
0
 10
6.27106
 20
8.40625
 30
0.0
 40
0
 41
0
  0
VERTEX
  8
0
 10
6.27106
 20
8.38026
 30
0.0
 40
0
 41
0
  0
VERTEX
  8
0
 10
6.24989
 20
8.30219
 30
0.0
 40
0
 41
0
  0
VERTEX
  8
0
 10
6.19228
 20
8.21696
 30
0.0
 40
0
 41
0
  0
VERTEX
  8
0
 10
6.10704
 20
8.15935
 30
0.0
 40
0
 41
0
  0
VERTEX
  8
0
 10
6.02897
 20
8.13818
 30
0.0
 40
0
 41
0
  0
VERTEX
  8
0
 10
6.00299
 20
8.13818
 30
0.0
 40
0
 41
0
  0
VERTEX
  8
0
 10
3.8226
 20
8.13818
 30
0.0
 40
0
 41
0
  0
VERTEX
  8
0
 10
3.79656
 20
8.13818
 30
0.0
 40
0
 41
0
  0
VERTEX
  8
0
 10
3.71847
 20
8.15935
 30
0.0
 40
0
 41
0
  0
VERTEX
  8
0
 10
3.63325
 20
8.21696
 30
0.0
 40
0
 41
0
  0
VERTEX
  8
0
 10
3.57563
 20
8.30219
 30
0.0
 40
0
 41
0
  0
VERTEX
  8
0
 10
3.55453
 20
8.38026
 30
0.0
 40
0
 41
0
  0
VERTEX
  8
0
 10
3.55453
 20
8.40625
 30
0.0
 40
0
 41
0
  0
VERTEX
  8
0
 10
3.55453
 20
10.5867
 30
0.0
 40
0
 41
0
  0
VERTEX
  8
0
 10
3.55453
 20
10.6127
 30
0.0
 40
0
 41
0
  0
VERTEX
  8
0
 10
3.57563
 20
10.6908
 30
0.0
 40
0
 41
0
  0
VERTEX
  8
0
 10
3.63325
 20
10.776
 30
0.0
 40
0
 41
0
  0
VERTEX
  8
0
 10
3.71847
 20
10.8336
 30
0.0
 40
0
 41
0
  0
VERTEX
  8
0
 10
3.79656
 20
10.8547
 30
0.0
 40
0
 41
0
  0
VERTEX
  8
0
 10
3.8226
 20
10.8547
 30
0.0
 40
0
 41
0
  0
SEQEND
 8
0
  0
POLYLINE
  8
0
 62
     142
 66
     1
 10
0
 20
0
 30
0.0
 70
     1
 40
0
 41
0
  0
VERTEX
  8
0
 10
4.33703
 20
10.1165
 30
0.0
 40
0
 41
0
  0
VERTEX
  8
0
 10
5.48856
 20
10.1165
 30
0.0
 40
0
 41
0
  0
VERTEX
  8
0
 10
5.48856
 20
8.87642
 30
0.0
 40
0
 41
0
  0
VERTEX
  8
0
 10
4.33703
 20
8.87642
 30
0.0
 40
0
 41
0
  0
VERTEX
  8
0
 10
4.33703
 20
10.1165
 30
0.0
 40
0
 41
0
  0
SEQEND
 8
0
  0
POLYLINE
  8
0
 62
     0
 66
     1
 10
0
 20
0
 30
0.0
 70
     1
 40
0.162
 41
0.162
  0
VERTEX
  8
0
 10
3.8226
 20
10.8547
 30
0.0
 40
0.00225
 41
0.00225
  0
VERTEX
  8
0
 10
6.00299
 20
10.8547
 30
0.0
 40
0.00225
 41
0.00225
  0
VERTEX
  8
0
 10
6.02897
 20
10.8547
 30
0.0
 40
0.00225
 41
0.00225
  0
VERTEX
  8
0
 10
6.10704
 20
10.8336
 30
0.0
 40
0.00225
 41
0.00225
  0
VERTEX
  8
0
 10
6.19228
 20
10.776
 30
0.0
 40
0.00225
 41
0.00225
  0
VERTEX
  8
0
 10
6.24989
 20
10.6908
 30
0.0
 40
0.00225
 41
0.00225
  0
VERTEX
  8
0
 10
6.27106
 20
10.6127
 30
0.0
 40
0.00225
 41
0.00225
  0
VERTEX
  8
0
 10
6.27106
 20
10.5867
 30
0.0
 40
0.00225
 41
0.00225
  0
VERTEX
  8
0
 10
6.27106
 20
8.40625
 30
0.0
 40
0.00225
 41
0.00225
  0
VERTEX
  8
0
 10
6.27106
 20
8.38026
 30
0.0
 40
0.00225
 41
0.00225
  0
VERTEX
  8
0
 10
6.24989
 20
8.30219
 30
0.0
 40
0.00225
 41
0.00225
  0
VERTEX
  8
0
 10
6.19228
 20
8.21696
 30
0.0
 40
0.00225
 41
0.00225
  0
VERTEX
  8
0
 10
6.10704
 20
8.15935
 30
0.0
 40
0.00225
 41
0.00225
  0
VERTEX
  8
0
 10
6.02897
 20
8.13818
 30
0.0
 40
0.00225
 41
0.00225
  0
VERTEX
  8
0
 10
6.00299
 20
8.13818
 30
0.0
 40
0.00225
 41
0.00225
  0
VERTEX
  8
0
 10
3.8226
 20
8.13818
 30
0.0
 40
0.00225
 41
0.00225
  0
VERTEX
  8
0
 10
3.79656
 20
8.13818
 30
0.0
 40
0.00225
 41
0.00225
  0
VERTEX
  8
0
 10
3.71847
 20
8.15935
 30
0.0
 40
0.00225
 41
0.00225
  0
VERTEX
  8
0
 10
3.63325
 20
8.21696
 30
0.0
 40
0.00225
 41
0.00225
  0
VERTEX
  8
0
 10
3.57563
 20
8.30219
 30
0.0
 40
0.00225
 41
0.00225
  0
VERTEX
  8
0
 10
3.55453
 20
8.38026
 30
0.0
 40
0.00225
 41
0.00225
  0
VERTEX
  8
0
 10
3.55453
 20
8.40625
 30
0.0
 40
0.00225
 41
0.00225
  0
VERTEX
  8
0
 10
3.55453
 20
10.5867
 30
0.0
 40
0.00225
 41
0.00225
  0
VERTEX
  8
0
 10
3.55453
 20
10.6127
 30
0.0
 40
0.00225
 41
0.00225
  0
VERTEX
  8
0
 10
3.57563
 20
10.6908
 30
0.0
 40
0.00225
 41
0.00225
  0
VERTEX
  8
0
 10
3.63325
 20
10.776
 30
0.0
 40
0.00225
 41
0.00225
  0
VERTEX
  8
0
 10
3.71847
 20
10.8336
 30
0.0
 40
0.00225
 41
0.00225
  0
VERTEX
  8
0
 10
3.79656
 20
10.8547
 30
0.0
 40
0.00225
 41
0.00225
  0
VERTEX
  8
0
 10
3.8226
 20
10.8547
 30
0.0
 40
0.00225
 41
0.00225
  0
SEQEND
 8
0
  0
POLYLINE
  8
0
 62
     0
 66
     1
 10
0
 20
0
 30
0.0
 70
     1
 40
0.162
 41
0.162
  0
VERTEX
  8
0
 10
4.33703
 20
10.1165
 30
0.0
 40
0.00225
 41
0.00225
  0
VERTEX
  8
0
 10
5.48856
 20
10.1165
 30
0.0
 40
0.00225
 41
0.00225
  0
VERTEX
  8
0
 10
5.48856
 20
8.87642
 30
0.0
 40
0.00225
 41
0.00225
  0
VERTEX
  8
0
 10
4.33703
 20
8.87642
 30
0.0
 40
0.00225
 41
0.00225
  0
VERTEX
  8
0
 10
4.33703
 20
10.1165
 30
0.0
 40
0.00225
 41
0.00225
  0
SEQEND
 8
0
  0
ENDSEC
  0
EOF
